<svg xmlns="http://www.w3.org/2000/svg" xmlns:xlink="http://www.w3.org/1999/xlink" width="500" zoomAndPan="magnify" viewBox="0 0 375 374.999991" height="500" preserveAspectRatio="xMidYMid meet" version="1.0"><defs><g/><clipPath id="f2b01be697"><path d="M 187.5 160.988281 L 337.5 160.988281 L 337.5 214.011719 L 187.5 214.011719 Z M 187.5 160.988281 " clip-rule="nonzero"/></clipPath></defs><rect x="-37.5" width="450" fill="#ffffff" y="-37.499999" height="449.999989" fill-opacity="1"/><rect x="-37.5" width="450" fill="#000000" y="-37.499999" height="449.999989" fill-opacity="1"/><g clip-path="url(#f2b01be697)"><path fill="#ffffff" d="M 187.5 160.988281 L 337.460938 160.988281 L 337.460938 214.011719 L 187.5 214.011719 Z M 187.5 160.988281 " fill-opacity="1" fill-rule="nonzero"/></g><g fill="#a6a6a6" fill-opacity="1"><g transform="translate(195.234367, 197.737545)"><g><path d="M 4.78125 -19.046875 L 4.78125 -10.53125 C 4.78125 -10.375 4.867188 -10.273438 5.046875 -10.234375 C 5.972656 -10.097656 7.015625 -10.03125 8.171875 -10.03125 C 10.085938 -10.03125 11.550781 -10.445312 12.5625 -11.28125 C 13.582031 -12.113281 14.09375 -13.300781 14.09375 -14.84375 C 14.09375 -16.394531 13.59375 -17.570312 12.59375 -18.375 C 11.601562 -19.175781 10.128906 -19.578125 8.171875 -19.578125 C 7.128906 -19.578125 6.085938 -19.5 5.046875 -19.34375 C 4.867188 -19.300781 4.78125 -19.203125 4.78125 -19.046875 Z M 4.78125 -8.125 L 4.78125 -1.15625 C 4.78125 -0.851562 4.671875 -0.582031 4.453125 -0.34375 C 4.234375 -0.113281 3.957031 0 3.625 0 C 3.289062 0 3.015625 -0.113281 2.796875 -0.34375 C 2.578125 -0.582031 2.46875 -0.851562 2.46875 -1.15625 L 2.46875 -19.375 C 2.46875 -19.832031 2.617188 -20.238281 2.921875 -20.59375 C 3.234375 -20.957031 3.625 -21.171875 4.09375 -21.234375 C 5.582031 -21.378906 7.003906 -21.453125 8.359375 -21.453125 C 10.984375 -21.453125 12.976562 -20.894531 14.34375 -19.78125 C 15.707031 -18.675781 16.390625 -17.085938 16.390625 -15.015625 C 16.390625 -12.773438 15.703125 -11.070312 14.328125 -9.90625 C 12.953125 -8.75 10.960938 -8.171875 8.359375 -8.171875 C 7.304688 -8.171875 6.203125 -8.222656 5.046875 -8.328125 C 4.867188 -8.328125 4.78125 -8.257812 4.78125 -8.125 Z M 4.78125 -8.125 "/></g></g></g><g fill="#a6a6a6" fill-opacity="1"><g transform="translate(212.629671, 197.737545)"><g><path d="M 4.78125 -10.203125 L 4.78125 -1.15625 C 4.78125 -0.851562 4.671875 -0.582031 4.453125 -0.34375 C 4.234375 -0.113281 3.957031 0 3.625 0 C 3.289062 0 3.015625 -0.113281 2.796875 -0.34375 C 2.578125 -0.582031 2.46875 -0.851562 2.46875 -1.15625 L 2.46875 -20.015625 C 2.46875 -20.316406 2.578125 -20.582031 2.796875 -20.8125 C 3.015625 -21.050781 3.289062 -21.171875 3.625 -21.171875 C 3.957031 -21.171875 4.234375 -21.050781 4.453125 -20.8125 C 4.671875 -20.582031 4.78125 -20.316406 4.78125 -20.015625 L 4.78125 -12.5625 C 4.78125 -12.40625 4.867188 -12.328125 5.046875 -12.328125 L 15.546875 -12.328125 C 15.722656 -12.328125 15.8125 -12.40625 15.8125 -12.5625 L 15.8125 -20.015625 C 15.8125 -20.316406 15.921875 -20.582031 16.140625 -20.8125 C 16.359375 -21.050781 16.628906 -21.171875 16.953125 -21.171875 C 17.285156 -21.171875 17.5625 -21.050781 17.78125 -20.8125 C 18.007812 -20.582031 18.125 -20.316406 18.125 -20.015625 L 18.125 -1.15625 C 18.125 -0.851562 18.007812 -0.582031 17.78125 -0.34375 C 17.5625 -0.113281 17.285156 0 16.953125 0 C 16.628906 0 16.359375 -0.113281 16.140625 -0.34375 C 15.921875 -0.582031 15.8125 -0.851562 15.8125 -1.15625 L 15.8125 -10.203125 C 15.8125 -10.378906 15.722656 -10.46875 15.546875 -10.46875 L 5.046875 -10.46875 C 4.867188 -10.46875 4.78125 -10.378906 4.78125 -10.203125 Z M 4.78125 -10.203125 "/></g></g></g><g fill="#a6a6a6" fill-opacity="1"><g transform="translate(233.214112, 197.737545)"><g><path d="M 9.625 -19.046875 L 5.921875 -8.265625 C 5.878906 -8.109375 5.925781 -8.03125 6.0625 -8.03125 L 13.21875 -8.03125 C 13.375 -8.03125 13.429688 -8.109375 13.390625 -8.265625 L 9.6875 -19.046875 C 9.6875 -19.066406 9.675781 -19.078125 9.65625 -19.078125 C 9.632812 -19.078125 9.625 -19.066406 9.625 -19.046875 Z M 5.109375 -5.9375 L 3.453125 -1.125 C 3.179688 -0.375 2.648438 0 1.859375 0 C 1.566406 0 1.335938 -0.117188 1.171875 -0.359375 C 1.003906 -0.597656 0.972656 -0.851562 1.078125 -1.125 L 7.953125 -19.953125 C 8.085938 -20.316406 8.3125 -20.609375 8.625 -20.828125 C 8.945312 -21.054688 9.300781 -21.171875 9.6875 -21.171875 C 10.070312 -21.171875 10.425781 -21.054688 10.75 -20.828125 C 11.082031 -20.609375 11.316406 -20.316406 11.453125 -19.953125 L 18.296875 -1.15625 C 18.390625 -0.863281 18.351562 -0.597656 18.1875 -0.359375 C 18.03125 -0.117188 17.796875 0 17.484375 0 C 17.117188 0 16.78125 -0.109375 16.46875 -0.328125 C 16.164062 -0.554688 15.953125 -0.84375 15.828125 -1.1875 L 14.203125 -5.9375 C 14.148438 -6.09375 14.035156 -6.171875 13.859375 -6.171875 L 5.421875 -6.171875 C 5.265625 -6.171875 5.160156 -6.09375 5.109375 -5.9375 Z M 5.109375 -5.9375 "/></g></g></g><g fill="#a6a6a6" fill-opacity="1"><g transform="translate(252.58089, 197.737545)"><g><path d="M 11.515625 -19.515625 C 9.097656 -19.515625 7.160156 -18.707031 5.703125 -17.09375 C 4.242188 -15.476562 3.515625 -13.304688 3.515625 -10.578125 C 3.515625 -7.859375 4.242188 -5.691406 5.703125 -4.078125 C 7.160156 -2.460938 9.097656 -1.65625 11.515625 -1.65625 C 13.910156 -1.65625 15.835938 -2.460938 17.296875 -4.078125 C 18.753906 -5.691406 19.484375 -7.859375 19.484375 -10.578125 C 19.484375 -13.304688 18.753906 -15.476562 17.296875 -17.09375 C 15.835938 -18.707031 13.910156 -19.515625 11.515625 -19.515625 Z M 19.015625 -2.671875 C 17.128906 -0.691406 14.628906 0.296875 11.515625 0.296875 C 8.398438 0.296875 5.894531 -0.691406 4 -2.671875 C 2.101562 -4.660156 1.15625 -7.296875 1.15625 -10.578125 C 1.15625 -13.867188 2.101562 -16.503906 4 -18.484375 C 5.894531 -20.460938 8.398438 -21.453125 11.515625 -21.453125 C 14.628906 -21.453125 17.128906 -20.460938 19.015625 -18.484375 C 20.898438 -16.503906 21.84375 -13.867188 21.84375 -10.578125 C 21.84375 -7.296875 20.898438 -4.660156 19.015625 -2.671875 Z M 19.015625 -2.671875 "/></g></g></g><g fill="#a6a6a6" fill-opacity="1"><g transform="translate(275.571679, 197.737545)"><g><path d="M 11.515625 -19.515625 C 9.097656 -19.515625 7.160156 -18.707031 5.703125 -17.09375 C 4.242188 -15.476562 3.515625 -13.304688 3.515625 -10.578125 C 3.515625 -7.859375 4.242188 -5.691406 5.703125 -4.078125 C 7.160156 -2.460938 9.097656 -1.65625 11.515625 -1.65625 C 13.910156 -1.65625 15.835938 -2.460938 17.296875 -4.078125 C 18.753906 -5.691406 19.484375 -7.859375 19.484375 -10.578125 C 19.484375 -13.304688 18.753906 -15.476562 17.296875 -17.09375 C 15.835938 -18.707031 13.910156 -19.515625 11.515625 -19.515625 Z M 19.015625 -2.671875 C 17.128906 -0.691406 14.628906 0.296875 11.515625 0.296875 C 8.398438 0.296875 5.894531 -0.691406 4 -2.671875 C 2.101562 -4.660156 1.15625 -7.296875 1.15625 -10.578125 C 1.15625 -13.867188 2.101562 -16.503906 4 -18.484375 C 5.894531 -20.460938 8.398438 -21.453125 11.515625 -21.453125 C 14.628906 -21.453125 17.128906 -20.460938 19.015625 -18.484375 C 20.898438 -16.503906 21.84375 -13.867188 21.84375 -10.578125 C 21.84375 -7.296875 20.898438 -4.660156 19.015625 -2.671875 Z M 19.015625 -2.671875 "/></g></g></g><g fill="#a6a6a6" fill-opacity="1"><g transform="translate(298.562469, 197.737545)"><g><path d="M 11.515625 -19.515625 C 9.097656 -19.515625 7.160156 -18.707031 5.703125 -17.09375 C 4.242188 -15.476562 3.515625 -13.304688 3.515625 -10.578125 C 3.515625 -7.859375 4.242188 -5.691406 5.703125 -4.078125 C 7.160156 -2.460938 9.097656 -1.65625 11.515625 -1.65625 C 13.910156 -1.65625 15.835938 -2.460938 17.296875 -4.078125 C 18.753906 -5.691406 19.484375 -7.859375 19.484375 -10.578125 C 19.484375 -13.304688 18.753906 -15.476562 17.296875 -17.09375 C 15.835938 -18.707031 13.910156 -19.515625 11.515625 -19.515625 Z M 19.015625 -2.671875 C 17.128906 -0.691406 14.628906 0.296875 11.515625 0.296875 C 8.398438 0.296875 5.894531 -0.691406 4 -2.671875 C 2.101562 -4.660156 1.15625 -7.296875 1.15625 -10.578125 C 1.15625 -13.867188 2.101562 -16.503906 4 -18.484375 C 5.894531 -20.460938 8.398438 -21.453125 11.515625 -21.453125 C 14.628906 -21.453125 17.128906 -20.460938 19.015625 -18.484375 C 20.898438 -16.503906 21.84375 -13.867188 21.84375 -10.578125 C 21.84375 -7.296875 20.898438 -4.660156 19.015625 -2.671875 Z M 19.015625 -2.671875 "/></g></g></g><g fill="#a6a6a6" fill-opacity="1"><g transform="translate(321.553258, 197.737545)"><g><path d="M 5.453125 -2.703125 L 5.453125 -1.359375 C 5.453125 -0.972656 5.320312 -0.648438 5.0625 -0.390625 C 4.800781 -0.128906 4.488281 0 4.125 0 C 3.726562 0 3.398438 -0.132812 3.140625 -0.40625 C 2.878906 -0.675781 2.75 -0.992188 2.75 -1.359375 L 2.75 -2.703125 C 2.75 -3.066406 2.878906 -3.382812 3.140625 -3.65625 C 3.398438 -3.925781 3.726562 -4.0625 4.125 -4.0625 C 4.488281 -4.0625 4.800781 -3.929688 5.0625 -3.671875 C 5.320312 -3.410156 5.453125 -3.085938 5.453125 -2.703125 Z M 5.453125 -2.703125 "/></g></g></g></svg>